<svg width="22" height="16" viewBox="0 0 22 16" fill="none" xmlns="http://www.w3.org/2000/svg">
<path d="M13.8242 15.9222C13.6034 15.9222 13.3827 15.8408 13.2084 15.6666C12.8715 15.3296 12.8715 14.772 13.2084 14.435L19.645 7.99844L13.2084 1.56188C12.8715 1.22495 12.8715 0.667269 13.2084 0.330336C13.5454 -0.0065965 14.103 -0.0065965 14.44 0.330336L21.4923 7.38267C21.8293 7.7196 21.8293 8.27728 21.4923 8.61422L14.44 15.6666C14.2657 15.8408 14.0449 15.9222 13.8242 15.9222Z" fill="white"/>
<path d="M20.6801 8.86971H1.12635C0.649999 8.86971 0.254974 8.47468 0.254974 7.99833C0.254974 7.52198 0.649999 7.12695 1.12635 7.12695H20.6801C21.1564 7.12695 21.5515 7.52198 21.5515 7.99833C21.5515 8.47468 21.1564 8.86971 20.6801 8.86971Z" fill="white"/>
</svg>
